# Blender 4.3.2
# www.blender.org
mtllib Annoying.mtl
o Short.001
v 0.000000 1.356533 0.614331
v 0.000000 1.706428 0.286417
v 0.632835 1.264267 0.590888
v 0.759137 1.366698 0.298997
v 0.000000 1.602258 0.477465
v 0.000000 1.588018 -0.432300
v 0.000000 1.751083 0.032091
v 0.675623 1.386731 -0.441600
v 0.386790 1.320633 0.607771
v 0.717571 1.311614 0.488033
v 0.430518 1.631058 0.287571
v 0.411793 1.542218 0.477044
v 0.376548 1.526940 -0.432641
v 0.422030 1.673610 0.032902
v -0.632835 1.264267 0.590888
v -0.759137 1.366698 0.298997
v -0.675622 1.386731 -0.441600
v -0.386789 1.320633 0.607771
v -0.717571 1.311614 0.488033
v -0.430518 1.631058 0.287571
v -0.411793 1.542218 0.477044
v -0.376547 1.526940 -0.432641
v -0.422030 1.673610 0.032902
v 0.000000 1.962924 -0.344086
v 0.376548 1.901846 -0.344428
v -0.376547 1.901846 -0.344428
v 0.602903 1.523331 0.036267
v 0.714517 1.394363 -0.189586
v 0.755497 1.380174 0.197693
v -0.714517 1.394363 -0.189586
v -0.602903 1.523331 0.036267
v -0.755497 1.380174 0.197693
v 0.675623 1.583322 -0.395344
v 0.518214 1.835431 -0.348672
v -0.518213 1.835431 -0.348672
v -0.675622 1.583322 -0.395344
v 0.376548 1.714393 -0.465115
v -0.376547 1.714393 -0.465115
v 0.000000 1.775471 -0.464774
vn -0.0000 0.9506 0.3105
vn -0.0000 0.7336 0.6796
vn 0.2898 0.7185 0.6323
vn 0.3946 0.8768 0.2748
vn -0.0000 0.4942 0.8693
vn 0.1845 0.5284 0.8287
vn 0.2966 0.5544 0.7776
vn 0.4563 0.6771 0.5773
vn 0.5995 0.7624 0.2437
vn -0.0000 0.9390 0.3439
vn 0.3858 0.8661 0.3178
vn 0.6948 0.7052 0.1413
vn 0.6472 0.6653 0.3722
vn 0.3023 0.8240 0.4791
vn -0.3946 0.8768 0.2748
vn -0.2898 0.7185 0.6323
vn -0.1845 0.5284 0.8287
vn -0.4563 0.6771 0.5773
vn -0.2966 0.5544 0.7776
vn -0.5995 0.7624 0.2437
vn -0.3858 0.8661 0.3178
vn -0.6948 0.7052 0.1413
vn -0.6510 0.7568 0.0589
vn -0.9875 0.0361 -0.1535
vn -0.8974 0.4356 0.0701
vn -0.9395 0.3302 0.0913
vn -0.3023 0.8240 0.4791
vn -0.6472 0.6653 0.3722
vn -0.1753 0.1459 -0.9736
vn -0.3201 0.4350 -0.8416
vn -0.1841 0.5004 -0.8460
vn -0.1360 0.2261 -0.9646
vn -0.0000 0.2341 -0.9722
vn -0.0000 0.5413 -0.8408
vn 0.1841 0.5004 -0.8460
vn 0.1360 0.2261 -0.9646
vn 0.8974 0.4356 0.0701
vn 0.9875 0.0361 -0.1535
vn 0.9395 0.3302 0.0913
vn -0.0000 0.8674 0.4975
vn 0.3201 0.4350 -0.8416
vn 0.1753 0.1459 -0.9736
vn 0.6510 0.7568 0.0589
vn -0.0572 -0.0502 -0.9971
vn -0.0000 -0.1707 -0.9853
vn 0.0572 -0.0502 -0.9971
vn 0.1171 0.0356 -0.9925
vn -0.1171 0.0356 -0.9925
vt 0.156680 0.221101
vt 0.126324 0.217638
vt 0.126419 0.160016
vt 0.156163 0.158291
vt 0.098950 0.214515
vt 0.101659 0.161168
vt 0.101197 0.126835
vt 0.116793 0.115441
vt 0.143952 0.106700
vt 0.435786 0.272160
vt 0.475717 0.271810
vt 0.470140 0.341806
vt 0.431870 0.332997
vt 0.426456 0.362097
vt 0.365050 0.338606
vt 0.370141 0.319449
vt 0.142030 0.282180
vt 0.113439 0.273801
vt 0.089574 0.267102
vt 0.094020 0.315062
vt 0.081391 0.300448
vt 0.118513 0.329695
vt 0.430803 0.211401
vt 0.424880 0.182400
vt 0.442944 0.150144
vt 0.457547 0.144588
vt 0.468913 0.201922
vt 0.357866 0.185782
vt 0.170210 0.088363
vt 0.000000 0.000000
vt 0.363895 0.206965
vt 0.369321 0.226030
vt 0.369321 0.226030
vt 0.373823 0.272704
vt 0.392253 0.373441
vt 0.359393 0.359892
vt 0.359393 0.359892
vt 0.365050 0.338606
vt 0.445083 0.394032
vt 0.422657 0.382515
vt 0.459782 0.399331
s 1
f 2/1/1 5/2/2 12/3/3 11/4/4
f 5/2/2 1/5/5 9/6/6 12/3/3
f 12/3/3 9/6/6 3/7/7 10/8/8
f 11/4/4 12/3/3 10/8/8 4/9/9
f 7/10/10 2/11/1 11/12/4 14/13/11
f 27/14/12 34/15/13 25/16/14 14/13/11
f 2/1/1 20/17/15 21/18/16 5/2/2
f 5/2/2 21/18/16 18/19/17 1/5/5
f 21/18/16 19/20/18 15/21/19 18/19/17
f 20/17/15 16/22/20 19/20/18 21/18/16
f 23/23/21 31/24/22 32/25/23 16/26/20 20/27/15
f 7/10/10 23/23/21 20/27/15 2/11/1
f 17/28/24 30/29/25 36/28/26
f 31/30/22 23/30/21 26/30/27 35/30/28
f 36/28/29 35/31/30 26/32/31 38/33/32
f 39/34/33 24/34/34 25/16/35 37/16/36
f 38/33/32 26/32/31 24/34/34 39/34/33
f 28/35/37 8/36/38 33/37/39
f 7/30/10 14/30/11 25/30/14 24/30/40
f 24/30/40 26/30/27 23/30/21 7/30/10
f 37/16/36 25/16/35 34/38/41 33/37/42
f 27/14/12 29/39/43 28/40/37
f 30/30/25 32/30/23 31/30/22
f 27/14/12 28/35/37 33/37/39 34/15/13
f 30/30/25 31/30/22 35/30/28 36/30/26
f 14/13/11 11/12/4 4/41/9 29/39/43 27/14/12
f 22/33/44 38/33/32 39/34/33 6/34/45
f 6/34/45 39/34/33 37/16/36 13/16/46
f 13/16/46 37/16/36 33/37/42 8/36/47
f 17/28/48 36/28/29 38/33/32 22/33/44
